<svg width="488" height="661" viewBox="0 0 488 661" fill="none" xmlns="http://www.w3.org/2000/svg">
    <rect width="488" height="661" rx="20" fill="#F15156"/>
    <path d="M211.845 138.519C211.397 138.519 211.043 138.393 210.783 138.142C210.537 137.876 210.414 137.5 210.414 137.013V124.237C210.414 123.75 210.537 123.381 210.783 123.13C211.043 122.864 211.411 122.731 211.889 122.731H219.457C219.833 122.731 220.115 122.827 220.303 123.019C220.491 123.211 220.585 123.484 220.585 123.838C220.585 124.207 220.491 124.495 220.303 124.702C220.115 124.894 219.833 124.99 219.457 124.99H213.19V129.396H219.002C219.363 129.396 219.638 129.492 219.826 129.684C220.028 129.876 220.129 130.149 220.129 130.503C220.129 130.872 220.028 131.16 219.826 131.367C219.638 131.558 219.363 131.654 219.002 131.654H213.19V137.013C213.19 138.017 212.742 138.519 211.845 138.519Z" fill="white"/>
    <path d="M224.544 138.496C224.11 138.496 223.778 138.364 223.546 138.098C223.315 137.832 223.199 137.463 223.199 136.991V128.864C223.199 128.377 223.315 128.008 223.546 127.757C223.778 127.492 224.11 127.359 224.544 127.359C224.977 127.359 225.31 127.492 225.541 127.757C225.787 128.008 225.91 128.377 225.91 128.864V136.991C225.91 137.463 225.794 137.832 225.563 138.098C225.332 138.364 224.992 138.496 224.544 138.496ZM224.544 125.3C224.038 125.3 223.64 125.174 223.351 124.923C223.076 124.657 222.939 124.296 222.939 123.838C222.939 123.366 223.076 123.004 223.351 122.753C223.64 122.502 224.038 122.377 224.544 122.377C225.064 122.377 225.462 122.502 225.736 122.753C226.011 123.004 226.149 123.366 226.149 123.838C226.149 124.296 226.011 124.657 225.736 124.923C225.462 125.174 225.064 125.3 224.544 125.3Z" fill="white"/>
    <path d="M230.071 138.519C229.637 138.519 229.305 138.4 229.074 138.164C228.842 137.913 228.727 137.559 228.727 137.101V128.732C228.727 128.274 228.842 127.927 229.074 127.691C229.305 127.455 229.63 127.337 230.049 127.337C230.469 127.337 230.794 127.455 231.025 127.691C231.257 127.927 231.372 128.274 231.372 128.732V130.237L231.134 129.684C231.452 128.901 231.943 128.311 232.608 127.912C233.288 127.499 234.054 127.292 234.907 127.292C235.76 127.292 236.461 127.455 237.011 127.779C237.56 128.104 237.972 128.599 238.247 129.263C238.521 129.913 238.659 130.739 238.659 131.743V137.101C238.659 137.559 238.543 137.913 238.312 138.164C238.081 138.4 237.748 138.519 237.314 138.519C236.881 138.519 236.541 138.4 236.295 138.164C236.064 137.913 235.948 137.559 235.948 137.101V131.876C235.948 131.034 235.789 130.422 235.471 130.038C235.167 129.654 234.69 129.462 234.04 129.462C233.245 129.462 232.608 129.721 232.131 130.237C231.669 130.739 231.437 131.411 231.437 132.252V137.101C231.437 138.046 230.982 138.519 230.071 138.519Z" fill="white"/>
    <path d="M245.489 138.563C244.564 138.563 243.747 138.334 243.039 137.876C242.345 137.419 241.802 136.769 241.412 135.928C241.022 135.072 240.827 134.068 240.827 132.917C240.827 131.75 241.022 130.754 241.412 129.927C241.802 129.086 242.345 128.436 243.039 127.979C243.747 127.521 244.564 127.292 245.489 127.292C246.371 127.292 247.137 127.514 247.788 127.957C248.453 128.399 248.901 128.983 249.132 129.706H248.894V123.949C248.894 123.491 249.009 123.144 249.241 122.908C249.472 122.672 249.805 122.554 250.238 122.554C250.672 122.554 251.005 122.672 251.236 122.908C251.482 123.144 251.605 123.491 251.605 123.949V137.101C251.605 137.559 251.489 137.913 251.258 138.164C251.026 138.4 250.694 138.519 250.26 138.519C249.826 138.519 249.494 138.4 249.262 138.164C249.031 137.913 248.915 137.559 248.915 137.101V135.374L249.154 136.039C248.937 136.806 248.496 137.419 247.831 137.876C247.166 138.334 246.385 138.563 245.489 138.563ZM246.248 136.459C246.783 136.459 247.253 136.326 247.658 136.061C248.062 135.795 248.373 135.404 248.59 134.887C248.821 134.356 248.937 133.699 248.937 132.917C248.937 131.736 248.691 130.857 248.2 130.282C247.708 129.691 247.058 129.396 246.248 129.396C245.713 129.396 245.243 129.529 244.838 129.794C244.434 130.045 244.116 130.437 243.884 130.968C243.667 131.485 243.559 132.134 243.559 132.917C243.559 134.083 243.805 134.968 244.296 135.574C244.788 136.164 245.438 136.459 246.248 136.459Z" fill="white"/>
    <path d="M254.697 138.496C254.408 138.496 254.177 138.43 254.003 138.297C253.83 138.164 253.729 137.987 253.7 137.766C253.671 137.544 253.714 137.293 253.83 137.013L259.707 123.55C259.851 123.196 260.032 122.945 260.249 122.797C260.48 122.65 260.733 122.576 261.008 122.576C261.268 122.576 261.507 122.65 261.723 122.797C261.955 122.945 262.143 123.196 262.287 123.55L268.164 137.013C268.294 137.293 268.345 137.552 268.316 137.788C268.287 138.009 268.193 138.186 268.034 138.319C267.875 138.437 267.651 138.496 267.362 138.496C267.044 138.496 266.791 138.415 266.603 138.253C266.415 138.09 266.249 137.84 266.104 137.5L264.586 133.913L265.605 134.533H256.367L257.365 133.913L255.868 137.5C255.724 137.854 255.565 138.113 255.391 138.275C255.218 138.423 254.986 138.496 254.697 138.496ZM260.964 125.277L257.69 133.204L257.148 132.673H264.803L264.304 133.204L261.008 125.277H260.964Z" fill="white"/>
    <path d="M272.075 138.519C271.627 138.519 271.272 138.393 271.012 138.142C270.766 137.876 270.644 137.5 270.644 137.013V124.237C270.644 123.75 270.766 123.381 271.012 123.13C271.272 122.864 271.641 122.731 272.118 122.731H279.687C280.062 122.731 280.344 122.827 280.532 123.019C280.72 123.211 280.814 123.484 280.814 123.838C280.814 124.207 280.72 124.495 280.532 124.702C280.344 124.894 280.062 124.99 279.687 124.99H273.419V129.396H279.231C279.593 129.396 279.867 129.492 280.055 129.684C280.258 129.876 280.359 130.149 280.359 130.503C280.359 130.872 280.258 131.16 280.055 131.367C279.867 131.558 279.593 131.654 279.231 131.654H273.419V137.013C273.419 138.017 272.971 138.519 272.075 138.519Z" fill="white"/>
    <path d="M283.737 138.519C283.288 138.519 282.941 138.4 282.696 138.164C282.464 137.913 282.349 137.559 282.349 137.101V128.732C282.349 128.274 282.464 127.927 282.696 127.691C282.927 127.455 283.252 127.337 283.672 127.337C284.091 127.337 284.416 127.455 284.647 127.691C284.879 127.927 284.994 128.274 284.994 128.732V130.127H284.778C284.98 129.241 285.378 128.569 285.97 128.112C286.563 127.654 287.351 127.381 288.334 127.292C288.638 127.263 288.876 127.344 289.05 127.536C289.238 127.713 289.346 127.994 289.375 128.377C289.404 128.746 289.317 129.049 289.115 129.285C288.927 129.507 288.638 129.639 288.247 129.684L287.77 129.728C286.888 129.817 286.223 130.097 285.775 130.569C285.327 131.027 285.103 131.677 285.103 132.518V137.101C285.103 137.559 284.987 137.913 284.756 138.164C284.525 138.4 284.185 138.519 283.737 138.519Z" fill="white"/>
    <path d="M292.186 138.496C291.752 138.496 291.419 138.364 291.188 138.098C290.957 137.832 290.841 137.463 290.841 136.991V128.864C290.841 128.377 290.957 128.008 291.188 127.757C291.419 127.492 291.752 127.359 292.186 127.359C292.619 127.359 292.952 127.492 293.183 127.757C293.429 128.008 293.552 128.377 293.552 128.864V136.991C293.552 137.463 293.436 137.832 293.205 138.098C292.973 138.364 292.634 138.496 292.186 138.496ZM292.186 125.3C291.68 125.3 291.282 125.174 290.993 124.923C290.718 124.657 290.581 124.296 290.581 123.838C290.581 123.366 290.718 123.004 290.993 122.753C291.282 122.502 291.68 122.377 292.186 122.377C292.706 122.377 293.104 122.502 293.378 122.753C293.653 123.004 293.79 123.366 293.79 123.838C293.79 124.296 293.653 124.657 293.378 124.923C293.104 125.174 292.706 125.3 292.186 125.3Z" fill="white"/>
    <path d="M301.595 138.563C300.395 138.563 299.361 138.334 298.494 137.876C297.626 137.419 296.954 136.769 296.477 135.928C296.014 135.086 295.783 134.09 295.783 132.939C295.783 131.817 296.007 130.835 296.455 129.994C296.918 129.152 297.547 128.495 298.342 128.023C299.151 127.536 300.069 127.292 301.096 127.292C301.848 127.292 302.52 127.418 303.113 127.669C303.72 127.92 304.233 128.281 304.652 128.754C305.086 129.226 305.411 129.802 305.628 130.481C305.86 131.145 305.975 131.898 305.975 132.739C305.975 133.005 305.881 133.212 305.693 133.359C305.52 133.492 305.267 133.559 304.934 133.559H297.973V131.964H304.067L303.72 132.297C303.72 131.618 303.619 131.049 303.416 130.592C303.228 130.134 302.946 129.787 302.571 129.551C302.209 129.3 301.754 129.174 301.204 129.174C300.597 129.174 300.077 129.322 299.643 129.617C299.224 129.898 298.898 130.304 298.667 130.835C298.45 131.352 298.342 131.972 298.342 132.695V132.85C298.342 134.061 298.617 134.968 299.166 135.574C299.73 136.164 300.554 136.459 301.638 136.459C302.014 136.459 302.433 136.415 302.896 136.326C303.373 136.223 303.821 136.053 304.24 135.817C304.544 135.64 304.811 135.566 305.043 135.596C305.274 135.611 305.455 135.692 305.585 135.839C305.73 135.987 305.816 136.171 305.845 136.393C305.874 136.6 305.831 136.814 305.715 137.035C305.614 137.256 305.433 137.448 305.173 137.611C304.667 137.935 304.081 138.179 303.416 138.341C302.766 138.489 302.159 138.563 301.595 138.563Z" fill="white"/>
    <path d="M309.467 138.519C309.033 138.519 308.7 138.4 308.469 138.164C308.238 137.913 308.122 137.559 308.122 137.101V128.732C308.122 128.274 308.238 127.927 308.469 127.691C308.7 127.455 309.026 127.337 309.445 127.337C309.864 127.337 310.189 127.455 310.421 127.691C310.652 127.927 310.768 128.274 310.768 128.732V130.237L310.529 129.684C310.847 128.901 311.339 128.311 312.004 127.912C312.683 127.499 313.45 127.292 314.303 127.292C315.156 127.292 315.857 127.455 316.406 127.779C316.956 128.104 317.368 128.599 317.642 129.263C317.917 129.913 318.054 130.739 318.054 131.743V137.101C318.054 137.559 317.939 137.913 317.707 138.164C317.476 138.4 317.143 138.519 316.71 138.519C316.276 138.519 315.936 138.4 315.69 138.164C315.459 137.913 315.344 137.559 315.344 137.101V131.876C315.344 131.034 315.184 130.422 314.866 130.038C314.563 129.654 314.086 129.462 313.435 129.462C312.64 129.462 312.004 129.721 311.527 130.237C311.064 130.739 310.833 131.411 310.833 132.252V137.101C310.833 138.046 310.377 138.519 309.467 138.519Z" fill="white"/>
    <path d="M324.885 138.563C323.959 138.563 323.142 138.334 322.434 137.876C321.74 137.419 321.198 136.769 320.808 135.928C320.417 135.072 320.222 134.068 320.222 132.917C320.222 131.75 320.417 130.754 320.808 129.927C321.198 129.086 321.74 128.436 322.434 127.979C323.142 127.521 323.959 127.292 324.885 127.292C325.766 127.292 326.533 127.514 327.183 127.957C327.848 128.399 328.296 128.983 328.528 129.706H328.289V123.949C328.289 123.491 328.405 123.144 328.636 122.908C328.868 122.672 329.2 122.554 329.634 122.554C330.067 122.554 330.4 122.672 330.631 122.908C330.877 123.144 331 123.491 331 123.949V137.101C331 137.559 330.884 137.913 330.653 138.164C330.422 138.4 330.089 138.519 329.655 138.519C329.222 138.519 328.889 138.4 328.658 138.164C328.427 137.913 328.311 137.559 328.311 137.101V135.374L328.549 136.039C328.333 136.806 327.892 137.419 327.227 137.876C326.562 138.334 325.781 138.563 324.885 138.563ZM325.644 136.459C326.178 136.459 326.648 136.326 327.053 136.061C327.458 135.795 327.769 135.404 327.986 134.887C328.217 134.356 328.333 133.699 328.333 132.917C328.333 131.736 328.087 130.857 327.595 130.282C327.104 129.691 326.453 129.396 325.644 129.396C325.109 129.396 324.639 129.529 324.234 129.794C323.829 130.045 323.511 130.437 323.28 130.968C323.063 131.485 322.954 132.134 322.954 132.917C322.954 134.083 323.2 134.968 323.692 135.574C324.183 136.164 324.834 136.459 325.644 136.459Z" fill="white"/>
    <path d="M184.727 149.7C181.625 153.115 176.166 153.147 173.022 149.77C171.618 148.261 172.709 145.845 174.799 145.832L182.903 145.783C184.993 145.771 186.113 148.174 184.727 149.7Z" fill="white"/>
    <path fill-rule="evenodd" clip-rule="evenodd" d="M192.36 145.505C190.724 146.776 188.413 146.356 187.028 144.822L182.627 139.947C180.854 137.982 177.741 137.982 175.967 139.947L171.204 145.223C169.854 146.719 167.619 147.162 165.979 145.981C160.536 142.06 157 135.717 157 128.559C157 116.652 166.783 107 178.851 107C190.919 107 200.702 116.652 200.702 128.559C200.702 135.434 197.44 141.558 192.36 145.505ZM172.254 130.974L176.384 135.796C177.696 137.327 180.006 137.327 181.318 135.796L185.448 130.974C186.774 129.426 186.09 126.976 184.171 126.398C180.696 125.352 177.006 125.352 173.531 126.398C171.612 126.976 170.929 129.426 172.254 130.974ZM172.377 120.758C172.377 122.546 170.927 123.995 169.14 123.995C167.352 123.995 165.902 122.546 165.902 120.758C165.902 118.97 167.352 117.521 169.14 117.521C170.927 117.521 172.377 118.97 172.377 120.758ZM188.563 123.995C190.351 123.995 191.8 122.546 191.8 120.758C191.8 118.97 190.351 117.521 188.563 117.521C186.775 117.521 185.326 118.97 185.326 120.758C185.326 122.546 186.775 123.995 188.563 123.995Z" fill="white"/>
    <g clip-path="url(#clip0_1213_2)">
        <path d="M111.45 482.673C110.521 469.723 113.028 451.886 115.206 451.614C117.264 451.363 125.418 463.646 128.936 469.115C124.851 470.017 121.333 472.706 118.215 475.336C115.66 477.545 113.363 479.984 111.45 482.668V482.673Z" fill="#FA9700"/>
        <path d="M118.215 475.342C121.333 472.711 124.851 470.017 128.936 469.12C129.941 470.684 130.573 471.692 130.573 471.692L112.563 490.138C112.007 488.03 111.65 485.464 111.45 482.678C113.368 479.995 115.66 477.556 118.215 475.347V475.342Z" fill="#F27006"/>
        <path d="M159.061 482.673C158.861 485.458 158.505 488.025 157.948 490.132L139.938 471.687C139.938 471.687 140.57 470.678 141.575 469.115C145.66 470.017 149.173 472.706 152.296 475.336C154.852 477.545 157.148 479.984 159.061 482.668V482.673Z" fill="#F27006"/>
        <path d="M155.306 451.614C157.483 451.886 159.99 469.718 159.061 482.673C157.148 479.989 154.852 477.551 152.296 475.342C149.173 472.711 145.655 470.017 141.575 469.12C145.098 463.651 153.247 451.363 155.306 451.619V451.614Z" fill="#FA9700"/>
        <path d="M143.639 551.435C134.718 555.677 124.656 553.297 115.584 549.941L117.189 523.262L152.431 520.813C154.257 524.159 156.035 527.595 157.759 531.09C155.83 539.509 151.745 547.508 143.634 551.435H143.639Z" fill="#F27006"/>
        <path d="M143.639 551.435C151.745 547.508 155.83 539.509 157.764 531.09C178.19 572.463 191.402 622 191.402 622H111.25L115.584 549.946C124.657 553.302 134.713 555.682 143.639 551.44V551.435Z" fill="#FA9700"/>
        <path d="M114.687 451.998C119.469 456.592 119.934 464.633 119.004 471.201C118.129 476.857 115.368 481.329 111.666 485.112C110.299 473.058 112.509 454.853 114.681 451.998H114.687Z" fill="#FEB8AC"/>
        <path d="M155.824 451.998C151.042 456.592 150.572 464.633 151.507 471.201C152.382 476.857 155.144 481.329 158.845 485.112C160.212 473.058 158.002 454.853 155.83 451.998H155.824Z" fill="#FEB8AC"/>
        <path d="M135.258 551.008C155.208 551.008 158.942 516.736 160.434 500.254C161.92 483.772 149.853 469.734 135.258 469.734C120.663 469.734 108.597 483.772 110.083 500.254C111.569 516.736 115.308 551.008 135.258 551.008Z" fill="#FFF3DB"/>
        <path d="M138.463 469.969C151.566 471.842 161.806 484.994 160.428 500.249C159.688 508.477 158.38 521.144 154.776 531.762C151.231 517.644 139.662 510.606 138.609 502.533C137.576 494.631 138.155 477.385 138.463 469.963V469.969Z" fill="#FA9700"/>
        <path d="M132.049 469.969C132.351 477.391 132.935 494.636 131.903 502.538C130.849 510.611 119.28 517.649 115.735 531.767C112.131 521.149 110.829 508.482 110.083 500.254C108.705 484.994 118.945 471.847 132.049 469.974V469.969Z" fill="#FA9700"/>
        <path d="M124.116 507.842C121.431 507.842 119.334 504.945 119.334 501.242C119.334 500.767 119.723 500.382 120.204 500.382C120.685 500.382 121.074 500.767 121.074 501.242C121.074 503.888 122.468 506.124 124.122 506.124C125.775 506.124 127.164 503.888 127.164 501.242C127.164 500.767 127.553 500.382 128.034 500.382C128.515 500.382 128.904 500.767 128.904 501.242C128.904 504.945 126.802 507.842 124.122 507.842H124.116Z" fill="#593A42"/>
        <path d="M148.519 507.842C145.839 507.842 143.737 504.945 143.737 501.242C143.737 500.767 144.126 500.382 144.607 500.382C145.087 500.382 145.477 500.767 145.477 501.242C145.477 503.888 146.871 506.124 148.524 506.124C150.178 506.124 151.566 503.888 151.566 501.242C151.566 500.767 151.955 500.382 152.436 500.382C152.917 500.382 153.306 500.767 153.306 501.242C153.306 504.945 151.204 507.842 148.524 507.842H148.519Z" fill="#593A42"/>
        <path d="M144.601 539.104C144.601 543.159 140.413 546.446 135.258 546.446C130.103 546.446 125.91 543.159 125.91 539.104C125.91 535.049 130.093 531.762 135.258 531.762C140.424 531.762 144.601 535.049 144.601 539.104Z" fill="#593A42"/>
        <path d="M132.049 533.032C130.071 533.533 128.52 534.979 127.807 536.852C127.304 538.165 129.433 538.73 129.93 537.428C130.368 536.271 131.443 535.433 132.638 535.129C134.01 534.777 133.427 532.685 132.054 533.032H132.049Z" fill="#936170"/>
        <path d="M128.412 538.197C127.872 538.053 127.169 538.373 127.056 538.955C127.002 539.243 126.931 539.52 126.877 539.808C126.769 540.39 127.029 540.977 127.645 541.147C128.18 541.292 128.893 540.971 128.996 540.39C129.05 540.102 129.12 539.819 129.174 539.536C129.282 538.955 129.023 538.368 128.407 538.197H128.412Z" fill="#936170"/>
        <path d="M123.127 590.658C125.073 580.637 134.783 539.926 150.329 561.242C157.235 570.622 160.477 582.772 163.065 593.641C165.329 602.93 166.886 612.492 168.199 622H119.221C120.101 611.494 121.193 601.015 123.127 590.658Z" fill="#FFF3DB"/>
        <path d="M395.452 492.79C395.76 493.019 397.446 498.792 398.456 502.341L390.059 505.078V500.03C390.059 500.03 395.009 492.459 395.452 492.79Z" fill="#FEB8AC"/>
        <path d="M379.008 497.597C379.9 495.623 392.231 485.88 396.235 486.536C400.239 487.193 402.514 501.023 402.514 501.023L398.461 502.346C397.451 498.792 395.765 493.024 395.457 492.795C395.014 492.464 390.064 500.036 390.064 500.036C390.064 500.036 383.013 508.375 382.013 508.706C381.013 509.037 378.122 499.577 379.014 497.603L379.008 497.597Z" fill="#352328"/>
        <path d="M419.568 482.145C419.233 481.489 412.332 480.059 412.332 480.059C412.332 480.059 408.998 479.509 408.777 478.959C408.555 478.41 412.997 474.589 415.926 474.638C422.356 477.668 432.347 493.334 425.35 524.281L422.821 521.064C427.203 494.604 419.573 482.145 419.573 482.145H419.568Z" fill="#352328"/>
        <path d="M412.338 480.059C412.338 480.059 419.238 481.483 419.573 482.145C419.573 482.145 427.203 494.604 422.821 521.064L407.68 501.786L412.338 480.059Z" fill="#FEB8AC"/>
        <path d="M360.361 524.191C361.944 517.003 381.564 513.567 381.564 513.567C393.906 491.381 414.159 497.005 423.653 513.567C433.147 530.129 435.995 622 435.995 622H377.895L389.675 541.841C362.225 541.404 358.777 531.378 360.361 524.191Z" fill="#593A42"/>
        <path d="M410.371 622H377.895L389.675 541.841C389.675 541.841 393.825 542.337 399.385 541.937C399.385 541.937 407.431 601.5 410.371 622Z" fill="#352328"/>
        <path d="M396.235 514.159C396.235 519.175 399.52 523.241 403.568 523.241C407.615 523.241 410.9 519.175 410.9 514.159C410.9 509.144 407.615 505.078 403.568 505.078C399.52 505.078 396.235 509.144 396.235 514.159Z" fill="#352328"/>
        <path d="M400.569 514.159C400.569 515.733 401.439 517.014 402.514 517.014C403.589 517.014 404.459 515.739 404.459 514.159C404.459 512.58 403.589 511.305 402.514 511.305C401.439 511.305 400.569 512.58 400.569 514.159Z" fill="#191113"/>
        <path d="M388.114 513.642C388.114 515.216 388.983 516.491 390.059 516.491C391.134 516.491 392.004 515.216 392.004 513.642C392.004 512.068 391.134 510.787 390.059 510.787C388.983 510.787 388.114 512.062 388.114 513.642Z" fill="#191113"/>
        <path d="M359.448 523.241C359.448 526.421 362.733 529.003 366.78 529.003C370.827 529.003 374.113 526.421 374.113 523.241C374.113 520.061 370.827 517.478 366.78 517.478C362.733 517.478 359.448 520.055 359.448 523.241Z" fill="#191113"/>
        <path d="M368.958 518.476C370.509 518.871 371.73 520.002 372.292 521.475C372.686 522.504 371.017 522.947 370.627 521.928C370.282 521.021 369.439 520.359 368.504 520.125C367.429 519.853 367.882 518.204 368.963 518.481L368.958 518.476Z" fill="#593A42"/>
        <path d="M371.811 522.531C372.232 522.419 372.789 522.67 372.87 523.129C372.913 523.353 372.967 523.577 373.01 523.801C373.091 524.26 372.892 524.719 372.405 524.847C371.984 524.959 371.427 524.708 371.346 524.249C371.308 524.025 371.249 523.801 371.206 523.577C371.125 523.118 371.325 522.659 371.811 522.526V522.531Z" fill="#593A42"/>
        <path d="M391.772 531.917C391.772 531.917 401.342 536.463 399.007 542.06C396.673 547.657 384.731 536.217 384.731 536.217C384.731 536.217 388.087 535.524 391.772 531.922V531.917Z" fill="#FEB8AC"/>
        <path d="M394.311 540.059C392.507 538.16 390.324 536.463 387.984 535.241C387.492 534.985 387.93 534.248 388.422 534.505C390.81 535.753 393.074 537.514 394.922 539.456C395.3 539.856 394.695 540.459 394.311 540.059Z" fill="#FC8686"/>
        <path d="M394.538 527.685C393.366 531.362 390.864 533.955 387.395 535.641C382.667 537.941 378.095 537.37 373.227 535.886C372.697 535.726 372.924 534.899 373.454 535.065C377.787 536.388 381.667 536.954 386.006 535.316C389.697 533.923 392.512 531.196 393.701 527.461C393.868 526.938 394.701 527.163 394.533 527.685H394.538Z" fill="#352328"/>
        <path d="M308.929 523.822C307.589 525.252 306.32 526.704 305.19 528.235C306.725 512.463 312.393 502.522 314.43 502.517C316.965 502.517 319.456 511.86 320.736 517.553C315.927 518.193 312.523 520.061 308.935 523.822H308.929Z" fill="#FA9700"/>
        <path d="M308.929 523.822C312.517 520.061 315.922 518.198 320.731 517.553C321.293 520.045 321.622 521.843 321.622 521.843L304.85 533.384C304.909 531.607 305.028 529.889 305.185 528.235C306.32 526.704 307.584 525.252 308.924 523.822H308.929Z" fill="#FF740C"/>
        <path d="M355.746 529.606C355.843 530.834 355.919 532.093 355.962 533.384L339.189 521.843C339.189 521.843 339.487 520.215 340 517.916C343.188 518.892 346.322 520.952 348.829 522.606C351.51 524.484 353.876 526.906 355.741 529.612L355.746 529.606Z" fill="#FF740C"/>
        <path d="M346.387 502.517C348.478 502.517 354.417 513.05 355.746 529.612C353.882 526.906 351.515 524.484 348.835 522.606C346.328 520.957 343.193 518.892 340.005 517.916C341.259 512.265 343.799 502.517 346.392 502.517H346.387Z" fill="#FA9700"/>
        <path d="M314.425 506.78C315.225 506.636 318.986 520.989 318.072 522.126C317.159 523.262 308.816 529.788 308.384 528.801C307.951 527.808 312.847 507.063 314.43 506.78H314.425Z" fill="#FEB8AC"/>
        <path d="M346.387 506.78C345.587 506.636 341.826 520.989 342.74 522.126C343.653 523.262 351.996 529.788 352.428 528.801C352.861 527.808 347.965 507.063 346.382 506.78H346.387Z" fill="#FEB8AC"/>
        <path d="M307.822 622C307.822 622 296.809 567.362 301.327 543.943C305.844 520.525 323.633 518.017 330.409 518.017C337.185 518.017 354.973 520.525 359.485 543.943C364.003 567.362 352.99 622 352.99 622H307.816H307.822Z" fill="#FFF3DB"/>
        <path d="M331.435 518.038C338.827 518.3 355.179 521.624 359.485 543.943C364.003 567.362 352.99 622 352.99 622H351.65C362.311 585.941 360.496 540.641 331.435 518.038Z" fill="#FFF9EE"/>
        <path d="M332.792 540.593C329.825 533.64 331.83 521.416 329.82 521.416C327.81 521.416 329.82 533.64 326.848 540.593C324.557 545.971 309.859 539.894 303.31 536.863C309.686 520.013 324.384 518.017 330.403 518.017C336.423 518.017 350.851 519.965 357.324 536.393C351.423 539.195 335.207 546.259 332.792 540.593Z" fill="#FA9700"/>
        <path d="M300.305 562.49C302.099 568.829 304.931 574.933 308.384 580.813C315.289 592.611 323.492 603.549 326.95 616.91C327.323 618.292 327.831 620.074 328.253 622H307.822C307.822 622 301.035 588.305 300.305 562.49Z" fill="#FA9700"/>
        <path d="M352.428 580.813C355.881 574.933 358.713 568.824 360.507 562.49C359.777 588.299 352.99 622 352.99 622H332.559C332.986 620.074 333.489 618.292 333.862 616.91C337.314 603.554 345.517 592.611 352.428 580.813Z" fill="#FA9700"/>
        <path d="M331.435 518.033C337.898 518.263 351.202 520.84 357.324 536.394C355.373 537.322 352.293 538.709 348.959 539.952C344.82 531.463 339.065 523.967 331.43 518.033H331.435Z" fill="#FF9E10"/>
        <path d="M352.99 622H351.65C356.357 606.073 358.632 588.348 357.2 571.572C358.513 568.6 359.637 565.575 360.507 562.496C359.777 588.305 352.99 622.005 352.99 622.005V622Z" fill="#FF9E10"/>
        <path d="M335.78 535.94C336.109 535.94 336.374 535.678 336.374 535.353C336.374 533.539 337.331 532.007 338.46 532.007C339.589 532.007 340.546 533.539 340.546 535.353C340.546 535.678 340.811 535.94 341.14 535.94C341.47 535.94 341.735 535.678 341.735 535.353C341.735 532.818 340.297 530.834 338.46 530.834C336.623 530.834 335.185 532.818 335.185 535.353C335.185 535.678 335.45 535.94 335.78 535.94Z" fill="#593A42"/>
        <path d="M319.78 535.94C320.109 535.94 320.374 535.678 320.374 535.353C320.374 533.539 321.331 532.007 322.46 532.007C323.589 532.007 324.546 533.539 324.546 535.353C324.546 535.678 324.811 535.94 325.14 535.94C325.47 535.94 325.735 535.678 325.735 535.353C325.735 532.818 324.297 530.834 322.46 530.834C320.623 530.834 319.185 532.818 319.185 535.353C319.185 535.678 319.45 535.94 319.78 535.94Z" fill="#593A42"/>
        <path d="M341.135 547.732C338.503 552.326 334.137 554.546 328.831 554.289C323.654 554.044 318.38 550.554 317.656 545.219C317.586 544.68 318.413 544.45 318.488 544.995C319.218 550.362 324.405 553.228 329.458 553.468C334.197 553.692 338.098 551.312 340.394 547.3C340.67 546.819 341.416 547.252 341.14 547.732H341.135Z" fill="#593A42"/>
        <path d="M329.533 553.799C329.522 551.568 329.782 549.327 329.404 547.108C329.312 546.569 330.144 546.339 330.236 546.883C330.63 549.183 330.382 551.483 330.398 553.799C330.398 554.348 329.539 554.348 329.533 553.799Z" fill="#593A42"/>
        <path d="M322.547 543.362C322.547 546.542 325.832 549.124 329.879 549.124C333.926 549.124 337.212 546.547 337.212 543.362C337.212 540.176 333.926 537.599 329.879 537.599C325.832 537.599 322.547 540.176 322.547 543.362Z" fill="#593A42"/>
        <path d="M332.397 538.592C333.948 538.987 335.169 540.118 335.731 541.59C336.126 542.62 334.456 543.063 334.067 542.044C333.721 541.137 332.878 540.475 331.943 540.24C330.863 539.968 331.322 538.32 332.403 538.597L332.397 538.592Z" fill="#936170"/>
        <path d="M335.256 542.647C335.677 542.535 336.234 542.786 336.315 543.244C336.358 543.469 336.418 543.693 336.455 543.917C336.536 544.376 336.336 544.835 335.85 544.968C335.429 545.085 334.872 544.829 334.791 544.37C334.753 544.146 334.694 543.927 334.651 543.698C334.564 543.244 334.769 542.78 335.256 542.652V542.647Z" fill="#936170"/>
        <path d="M279.15 466.863C282.392 467.466 285.321 448.919 293.129 446.78C300.937 444.64 314.219 441.844 309.248 437.362C304.282 432.88 284.565 430.9 279.626 438.029C274.692 445.163 271.542 465.455 279.15 466.869V466.863Z" fill="#352328"/>
        <path d="M279.626 438.018C284.559 430.89 304.282 432.875 309.248 437.351C310.464 438.445 310.577 439.443 309.961 440.35C308.529 440.297 307.087 440.345 305.606 440.526C295.588 441.423 281.085 448.322 274.595 457.259C274.552 450.552 276.789 442.116 279.626 438.018Z" fill="#593A42"/>
        <path d="M262.421 500.905C266.565 504.384 273.136 506.759 273.136 506.759C272.444 526.645 277.567 550.704 283.635 571.684C255.039 535.39 262.421 500.911 262.421 500.911V500.905Z" fill="#EFDCBD"/>
        <path d="M242.946 484.541C246.259 467.973 252.062 451.608 273.071 455.493C294.08 459.377 292.249 480.245 291.627 480.245C291.006 480.245 313.171 503.973 301.435 510.926C289.698 517.878 273.136 506.753 273.136 506.753C273.136 506.753 266.565 504.379 262.421 500.9C262.421 500.9 255.039 535.38 283.635 571.673C291.703 599.547 301.44 621.989 301.44 621.989H228.448C226.584 573.717 239.531 501.62 242.952 484.535L242.946 484.541Z" fill="#FFF3DB"/>
        <path d="M263.393 492.096C263.393 492.096 253.862 489.375 251.954 494.705C250.047 500.041 265.582 499.422 265.582 499.422C265.582 499.422 263.68 496.872 263.393 492.096Z" fill="#FEB8AC"/>
        <path d="M308.022 500.644C308.022 504.091 304.466 506.881 300.078 506.881C295.691 506.881 292.135 504.091 292.135 500.644C292.135 497.197 295.691 494.406 300.078 494.406C304.466 494.406 308.022 497.202 308.022 500.644Z" fill="#593A42"/>
        <path d="M275.395 483.82C277.675 483.82 279.458 481.355 279.458 478.212C279.458 477.812 279.129 477.481 278.718 477.481C278.307 477.481 277.978 477.807 277.978 478.212C277.978 480.464 276.794 482.364 275.389 482.364C273.984 482.364 272.801 480.464 272.801 478.212C272.801 477.812 272.471 477.481 272.061 477.481C271.65 477.481 271.32 477.807 271.32 478.212C271.32 481.355 273.104 483.82 275.384 483.82H275.395Z" fill="#593A42"/>
        <path d="M288.817 483.82C291.098 483.82 292.881 481.355 292.881 478.212C292.881 477.812 292.551 477.481 292.14 477.481C291.73 477.481 291.4 477.807 291.4 478.212C291.4 480.464 290.217 482.364 288.812 482.364C287.407 482.364 286.223 480.464 286.223 478.212C286.223 477.812 285.894 477.481 285.483 477.481C285.073 477.481 284.743 477.807 284.743 478.212C284.743 481.355 286.526 483.82 288.806 483.82H288.817Z" fill="#593A42"/>
        <path d="M256.466 495.404C259 495.196 261.637 495.388 264.123 495.959C264.631 496.077 264.415 496.845 263.907 496.727C261.491 496.167 258.941 495.996 256.466 496.199C255.947 496.242 255.953 495.447 256.466 495.404Z" fill="#FC8686"/>
        <path d="M297.355 495.484C295.674 495.911 294.356 497.138 293.745 498.728C293.324 499.844 295.129 500.324 295.55 499.219C295.923 498.232 296.836 497.523 297.852 497.266C299.019 496.968 298.522 495.185 297.355 495.484Z" fill="#936170"/>
        <path d="M294.264 499.876C293.805 499.753 293.205 500.025 293.113 500.521C293.07 500.767 293.005 501.007 292.962 501.247C292.87 501.738 293.091 502.239 293.616 502.383C294.07 502.506 294.675 502.234 294.767 501.738C294.81 501.492 294.875 501.252 294.918 501.012C295.01 500.521 294.788 500.02 294.269 499.876H294.264Z" fill="#936170"/>
        <path d="M258.687 467.312C261.826 466.319 257.19 448.103 263.031 442.559C268.867 437.01 277.481 428.836 270.953 427.224C264.426 425.613 246.124 433.131 245.216 441.721C244.308 450.312 251.316 469.643 258.687 467.317V467.312Z" fill="#352328"/>
        <path d="M264.371 570.041C263.058 560.628 270.04 553.793 278.307 551.056C279.885 558.089 281.712 565.041 283.63 571.684C285.391 577.777 287.239 583.615 289.039 589.014C278.491 589.649 265.609 579.848 264.366 570.046L264.371 570.041Z" fill="#593A42"/>
        <path d="M246.145 502.106C244.465 509.304 241.914 515.643 237.024 518.519C239.466 502.821 241.768 490.426 242.946 484.546C243.541 481.585 244.211 478.629 245.037 475.795C250.49 483.783 249.041 490.677 246.145 502.106Z" fill="#593A42"/>
        <path d="M259.4 622H228.448C228.049 611.579 228.335 600.043 229.07 588.193C232.917 588.78 236.986 590.05 241.141 591.64C254.904 597.077 262.55 608.549 259.406 622.005L259.4 622Z" fill="#593A42"/>
        <path d="M264.847 487.827C263.075 491.781 263.869 495.65 265.976 499.294C267.808 502.458 270.958 504.107 274.19 505.574C274.66 505.788 274.249 506.476 273.785 506.262C270.045 504.571 267.003 502.677 264.923 499.081C262.804 495.415 262.415 491.306 264.15 487.433C264.361 486.963 265.058 487.369 264.847 487.833V487.827Z" fill="#593A42"/>
        <path d="M278.307 551.056V551.067C278.686 552.747 279.075 554.418 279.48 556.082C279.556 556.392 279.631 556.701 279.707 557.011C280.026 558.307 280.35 559.599 280.68 560.879C280.798 561.349 280.923 561.813 281.042 562.277C281.344 563.44 281.658 564.598 281.971 565.751C282.09 566.199 282.214 566.647 282.338 567.09C282.765 568.632 283.192 570.169 283.63 571.679C278.913 565.692 275.179 559.753 272.223 554.007C274.082 552.763 276.146 551.766 278.302 551.051L278.307 551.056Z" fill="#352328"/>
        <path d="M245.216 441.716C246.124 433.125 264.426 425.613 270.953 427.219C272.828 427.683 273.45 428.686 273.25 430.015C267.57 433.259 262.242 437.17 258.184 442.218C251.533 450.632 253.191 459.046 256.99 467.461C250.279 466.698 244.378 449.64 245.216 441.716Z" fill="#593A42"/>
        <path d="M243.816 622C243.816 622 247.431 563.76 230.464 536.009C213.491 508.263 193.46 518.428 185.668 529.964C185.668 529.964 174.261 537.38 163.411 537.108C163.411 537.108 168.42 556.888 190.121 548.1C190.121 548.1 208.758 549.471 212.378 571.449C215.993 593.427 189.289 622 189.289 622H243.816Z" fill="#FF740C"/>
        <path d="M185.106 530.316C195.503 537.199 190.121 548.1 190.121 548.1C168.42 556.893 163.411 537.108 163.411 537.108C172.846 537.348 182.696 531.773 185.106 530.311V530.316Z" fill="#FFF3DB"/>
        <path d="M224.277 578.13C233.722 597.141 234.879 612.577 234.257 622H189.283C189.283 622 215.993 593.427 212.373 571.449C208.758 549.471 190.115 548.1 190.115 548.1C190.115 548.1 208.331 546.04 224.272 578.13H224.277Z" fill="#ED4714"/>
        <path d="M159.909 538.127C162.12 540.481 165.254 541.158 166.913 539.638C168.566 538.122 168.112 534.985 165.902 532.632C163.692 530.279 160.558 529.606 158.904 531.122C157.251 532.637 157.705 535.774 159.915 538.127H159.909Z" fill="#593A42"/>
        <path d="M205.121 522.243C205.586 520.872 212.832 516.902 214.934 518.065C217.036 519.228 220.597 539.333 217.847 543.351C215.091 547.364 208.007 528.715 206.958 527.424C205.91 526.127 206.305 531.698 205.121 531.047C203.938 530.401 204.073 525.348 205.121 522.243Z" fill="#593A42"/>
        <path d="M191.515 531.447C191.515 532.957 192.293 534.184 193.255 534.184C194.217 534.184 194.995 532.957 194.995 531.447C194.995 529.937 194.217 528.71 193.255 528.71C192.293 528.71 191.515 529.932 191.515 531.447Z" fill="#593A42"/>
        <path d="M187.008 538.522C188.457 541.761 188.267 546.393 183.966 547.076C183.253 547.188 182.945 546.11 183.664 545.998C187.176 545.437 187.203 541.718 186.03 539.088C185.739 538.437 186.717 537.866 187.008 538.522Z" fill="#593A42"/>
        <path d="M162.773 531.09C163.276 531.367 163.73 531.671 164.135 532.082C165.162 533.117 163.481 534.622 162.46 533.592C162.195 533.325 161.866 533.155 161.541 532.973C160.266 532.269 161.503 530.391 162.773 531.095V531.09Z" fill="#936170"/>
        <path d="M165.799 533.459C166.151 533.736 166.399 534.008 166.648 534.376C166.988 534.889 166.675 535.625 166.172 535.886C165.583 536.191 164.983 535.924 164.643 535.417C164.616 535.39 164.594 535.364 164.567 535.337C164.086 534.958 163.87 534.339 164.232 533.79C164.546 533.32 165.318 533.08 165.799 533.459Z" fill="#936170"/>
        <path d="M97.871 554.844C97.871 554.844 98.3465 549.631 100.011 544.968C101.324 546.398 102.767 547.716 104.344 548.852L100.951 553.996L97.8656 554.844H97.871Z" fill="#EFDCBD"/>
        <path d="M100.016 544.968C100.513 543.57 101.119 542.225 101.853 541.083C102.118 540.673 102.426 540.288 102.767 539.92C102.664 539.077 102.729 538.138 103.177 537.498C103.437 537.076 103.912 536.788 104.318 537.194C104.631 537.509 104.588 538.005 104.534 538.416C104.55 538.405 104.566 538.4 104.577 538.384C104.944 537.135 105.063 535.62 105.971 534.649C106.382 534.248 106.868 534.19 107.138 534.745C107.473 535.412 107.16 536.377 107.003 537.044C107.435 536.559 109.608 533.976 110.44 533.779C111.185 533.613 111.11 534.248 110.883 534.75C110.651 535.278 110.256 535.732 109.829 536.148C113.482 535.321 117.043 535.817 117.881 537.967C119.61 542.385 107.106 544.653 107.106 544.653L104.345 548.842C102.767 547.705 101.324 546.382 100.011 544.957L100.016 544.968Z" fill="#FFF3DB"/>
        <path d="M85.1672 547.796C85.1672 547.796 88.3715 541.308 89.9764 542.257C91.5758 543.207 88.6957 547.796 88.6957 547.796C88.6957 547.796 95.5853 542.956 96.5471 544.979C97.509 547.006 92.381 549.695 92.381 549.695C92.381 549.695 103.437 551.91 106.16 552.859C108.883 553.809 112.888 556.973 107.922 559.188L106.479 566.62C106.479 566.62 119.458 564.721 120.901 571.369C122.344 578.012 119.62 582.126 118.34 582.126C117.059 582.126 116.097 580.226 116.097 580.226C116.097 580.226 116.778 585.957 114.33 586.597C112.704 587.024 111.769 583.545 111.769 583.545C111.769 583.545 110.791 590.135 108.084 590.034C106.641 589.98 106.128 585.93 106.128 585.93C106.128 585.93 102.156 591.143 99.9135 590.034C97.6711 588.929 94.1425 583.545 94.1425 583.545C94.1425 583.545 99.2705 595.727 98.6329 601.105C97.9899 606.484 95.7474 606.644 93.8237 604.744C93.8237 604.744 94.7855 614.237 91.2624 621.989H52C52 621.989 76.9916 559.972 79.5583 553.009C79.5583 553.009 77.9156 543.623 80.6822 542.882C83.4056 542.151 85.1672 547.785 85.1672 547.785V547.796Z" fill="#FFF3DB"/>
        <path d="M84.8321 616.253C85.286 611.921 84.0756 600.561 91.338 603.4C90.4302 600.262 88.0094 593.086 93.9101 595.028C92.5484 592.637 87.2529 583.817 89.9763 581.427C91.9054 579.714 94.5694 583.391 96.4822 586.757C95.1746 585.135 94.1371 583.551 94.1371 583.551C94.1371 583.551 99.2651 595.732 98.6275 601.111C97.9844 606.489 95.742 606.649 93.8183 604.75C93.8183 604.75 94.7801 614.242 91.257 621.995H71.7609C72.0959 620.175 72.7713 618.457 73.9385 616.995C76.5106 613.708 81.9628 612.961 84.8375 616.248L84.8321 616.253Z" fill="#EFDCBD"/>
        <path d="M116.119 538.682C115.379 541.18 106.798 543.479 106.798 543.479L99.3408 553.345C99.3408 553.345 103.307 542.135 104.015 541.025C104.723 539.915 117.038 535.55 116.114 538.677L116.119 538.682Z" fill="#FEB8AC"/>
        <path d="M71.361 540.406C71.8095 540.438 72.1067 540.843 72.3391 541.185C72.3391 541.169 72.3499 541.153 72.3553 541.131C71.7987 539.952 70.8747 538.736 70.9125 537.412C70.9558 536.847 71.28 536.484 71.8528 536.724C72.5498 537.007 72.9605 537.941 73.2847 538.544C73.2847 537.898 73.2037 534.542 73.6954 533.854C74.1439 533.245 74.5167 533.774 74.6788 534.296C74.8572 534.846 74.8626 535.444 74.8193 536.036C77.0132 533.037 80.0284 531.095 82.0925 532.167C86.3398 534.371 78.4451 544.205 78.4451 544.205L80.0392 555.229L78.283 557.875C78.283 557.875 73.0145 550.725 72.0959 544.931C72.0203 544.45 71.9987 543.959 72.0095 543.463C71.3718 542.892 70.7937 542.145 70.7018 541.372C70.6207 540.886 70.7829 540.363 71.3556 540.401L71.361 540.406Z" fill="#FFF3DB"/>
        <path d="M81.2334 533.848C82.3411 536.207 77.4185 543.517 77.4185 543.517L79.0179 555.245C79.0179 555.245 73.9008 544.77 73.6954 543.474C73.4901 542.177 79.8447 530.882 81.2388 533.843L81.2334 533.848Z" fill="#FEB8AC"/>
        <path d="M95.2935 561.626C95.0017 562.101 94.5856 562.384 94.0668 562.469C92.5917 562.715 91.03 561.253 89.436 558.099C89.3603 557.944 89.4198 557.763 89.5765 557.688C89.7278 557.608 89.9169 557.672 89.9925 557.827C91.8136 561.418 93.1644 562 93.9642 561.866C94.3046 561.813 94.564 561.631 94.7585 561.311C95.3205 560.394 95.18 558.601 94.8612 557.656C94.8179 557.523 94.8666 557.374 94.9909 557.299C95.1097 557.224 95.2664 557.24 95.3745 557.336C96.0932 558.003 96.7254 558.803 97.3144 559.785C97.4117 559.951 97.5143 560.121 97.617 560.297C98.1357 561.189 98.7193 562.202 99.5731 562.667C99.8703 562.827 100.151 562.859 100.405 562.757C100.708 562.635 100.962 562.33 101.097 561.909C101.41 561.023 101.097 560.073 100.794 559.15L100.729 558.948C100.686 558.819 100.735 558.675 100.854 558.595C100.967 558.521 101.119 558.526 101.227 558.617C101.405 558.766 101.583 558.916 101.762 559.07C102.594 559.78 103.453 560.516 104.442 560.863C104.923 561.018 105.279 561.007 105.49 560.831C105.803 560.57 105.901 559.876 105.76 558.942C105.733 558.777 105.852 558.617 106.025 558.59C106.192 558.558 106.355 558.681 106.382 558.852C106.511 559.679 106.528 560.778 105.901 561.306C105.512 561.631 104.96 561.679 104.247 561.455C103.264 561.109 102.437 560.458 101.653 559.791C101.859 560.538 101.972 561.327 101.702 562.106C101.513 562.699 101.129 563.147 100.648 563.334C100.475 563.403 100.297 563.435 100.113 563.435C99.8433 563.435 99.5623 563.36 99.2867 563.211C98.2816 562.656 97.6494 561.567 97.0874 560.607C96.9902 560.431 96.8875 560.265 96.7957 560.105C96.4552 559.534 96.0986 559.033 95.7203 558.585C95.85 559.604 95.8014 560.847 95.3151 561.637L95.2935 561.626Z" fill="#EFDCBD"/>
        <path d="M89.1983 569.299C89.2361 569.133 89.3982 569.032 89.5711 569.064C89.7386 569.101 89.8467 569.267 89.8089 569.432C89.6305 570.238 89.6684 571.102 89.9277 572.073C90.4519 573.93 91.0139 574.341 91.3867 574.357C92.1378 574.357 92.3756 572.831 92.4296 572.356C92.5323 571.657 92.4512 571.006 92.1864 570.425C92.1216 570.302 92.073 570.206 92.0405 570.137C91.9757 569.987 92.0405 569.811 92.1864 569.736C92.3377 569.662 92.5161 569.72 92.5971 569.864C92.6565 569.971 92.7106 570.073 92.7592 570.185C93.0942 570.793 93.7319 571.641 94.2614 571.807C94.4019 571.849 94.5154 571.839 94.6234 571.775C94.7531 571.7 94.818 571.599 94.8396 571.455C94.9369 570.718 93.8345 569.278 93.2509 568.701C93.1267 568.579 93.1267 568.386 93.2509 568.264C93.3752 568.141 93.5698 568.141 93.694 568.264C93.7157 568.285 95.6285 570.238 95.461 571.529C95.4178 571.865 95.2395 572.132 94.9477 572.303C94.6883 572.458 94.3857 572.49 94.0777 572.394C93.7265 572.282 93.3914 572.02 93.0942 571.705C93.0942 571.945 93.0834 572.186 93.0456 572.436C92.8511 574.074 92.2621 574.976 91.3705 574.976C90.0736 574.923 89.5063 572.906 89.3225 572.239C89.0416 571.166 88.9983 570.206 89.1983 569.304V569.299Z" fill="#EFDCBD"/>
        <path d="M77.0997 596.436C77.2564 596.5 77.332 596.682 77.2672 596.842C76.9754 597.53 77.1375 598.928 77.6184 599.947C77.9048 600.545 78.2614 600.94 78.6181 601.047C79.0612 601.164 79.4448 601.057 79.7961 600.732C80.5796 599.99 80.9416 598.277 80.7309 597.301C80.6931 597.135 80.8011 596.975 80.9632 596.938C81.1307 596.895 81.2983 597.002 81.3361 597.162C81.763 598.859 82.5141 600.422 82.9085 600.438C82.995 600.438 83.2057 600.262 83.4381 599.606C84.1405 597.52 84.1405 594.494 83.4381 592.403C83.3894 592.264 83.4489 592.109 83.5786 592.04C83.7083 591.965 83.8704 591.992 83.9676 592.104C84.789 593.032 86.41 594.409 87.28 593.71C87.5502 593.496 87.6853 593.219 87.6907 592.856C87.7231 591.645 86.3236 589.884 85.5995 589.249C85.4698 589.137 85.459 588.94 85.5725 588.817C85.686 588.689 85.8859 588.678 86.0156 588.79C86.7505 589.436 88.3553 591.362 88.3121 592.872C88.2959 593.416 88.0798 593.865 87.6691 594.185C86.6316 595.022 85.2321 594.126 84.3243 593.331C84.7565 595.412 84.6539 597.914 84.0217 599.798C83.9136 600.107 83.584 601.052 82.9031 601.052C82.8923 601.052 82.8815 601.052 82.8707 601.052C82.2115 601.025 81.6549 600.017 81.2712 599.035C81.1037 599.841 80.7579 600.657 80.2121 601.175C79.8393 601.527 79.4124 601.703 78.9423 601.703C78.7748 601.703 78.6073 601.681 78.4344 601.639C77.8886 601.473 77.4077 600.977 77.0402 600.209C76.4729 599.014 76.3162 597.461 76.6728 596.607C76.7376 596.447 76.9268 596.378 77.0835 596.442L77.0997 596.436Z" fill="#EFDCBD"/>
        <path d="M72.3012 579.133C72.4309 579.021 72.6254 579.026 72.7443 579.154C72.8578 579.277 72.8524 579.474 72.7227 579.586C71.6474 580.552 71.0206 582.238 71.8203 583.38C72.1337 583.764 72.5282 583.956 72.9226 583.924C73.3495 583.887 73.744 583.593 74.0088 583.113C74.079 582.99 74.2195 582.932 74.36 582.958C74.5005 582.996 74.5977 583.118 74.5977 583.257C74.5977 584.762 74.8841 586.112 75.2246 586.256C75.4083 586.32 75.5109 586.283 75.5704 586.245C76.0135 585.978 76.1756 584.789 76.2458 584.282L76.2674 584.143C76.2891 583.972 76.4404 583.855 76.6187 583.881C76.7862 583.903 76.9051 584.063 76.8835 584.228L76.8618 584.367C76.7646 585.066 76.5863 586.363 75.8892 586.779C75.7757 586.848 75.6136 586.912 75.4029 586.912C75.284 586.912 75.1435 586.891 74.9922 586.837C74.2897 586.539 74.0682 585.119 73.9979 584.106C73.7007 584.362 73.3495 584.511 72.9767 584.543C72.3607 584.591 71.7825 584.319 71.3178 583.748C70.2749 582.259 71.0476 580.258 72.3012 579.133Z" fill="#EFDCBD"/>
        <path d="M79.4502 570.185C79.2503 570.291 79.0395 570.345 78.8288 570.345C78.618 570.345 78.4019 570.291 78.1912 570.185C77.8669 570.025 77.6346 569.736 77.5157 569.336C77.2293 568.408 77.5968 566.994 77.9588 566.37C78.0453 566.22 78.2344 566.167 78.3857 566.252C78.537 566.338 78.591 566.524 78.4992 566.674C78.2398 567.127 77.8723 568.381 78.1155 569.16C78.1858 569.395 78.3046 569.55 78.4775 569.635C78.7261 569.752 78.9423 569.758 79.1584 569.64C79.8501 569.267 80.3418 567.81 80.4174 567.101C80.4336 566.935 80.5795 566.818 80.7633 566.828C80.9362 566.844 81.0551 566.999 81.0388 567.17C80.9578 567.89 80.4444 569.646 79.4556 570.179L79.4502 570.185Z" fill="#EFDCBD"/>
        <path d="M78.4829 565.196C78.4829 565.196 78.4451 565.196 78.4289 565.196C77.975 565.196 77.5751 564.95 77.3266 564.502C76.7051 563.275 78.4019 560.778 79.153 560.036C79.2773 559.919 79.4718 559.919 79.5961 560.036C79.7149 560.159 79.7149 560.351 79.5961 560.474C78.7909 561.269 77.4887 563.446 77.8777 564.214C78.0182 564.465 78.2181 564.593 78.4559 564.577C78.8179 564.561 79.207 564.257 79.4015 563.83C79.4718 563.675 79.6555 563.606 79.8122 563.675C79.9689 563.744 80.0392 563.926 79.9689 564.081C79.6825 564.721 79.0827 565.169 78.4829 565.196Z" fill="#EFDCBD"/>
        <path d="M86.6748 607.14C86.8153 607.241 86.8423 607.433 86.745 607.572C85.9777 608.613 84.589 612.422 85.9453 613.404C86.1344 613.532 86.3128 613.548 86.5181 613.463C86.9612 613.265 87.3935 612.593 87.5664 612.022C87.5988 611.878 87.6258 611.755 87.6474 611.654C87.6799 611.494 87.8312 611.377 87.9987 611.403C88.1662 611.43 88.2797 611.579 88.2635 611.745C88.2526 611.862 88.2202 612.001 88.1824 612.145C88.15 612.294 88.1067 612.454 88.0689 612.636C87.7717 613.868 87.1503 616.44 87.815 616.899C88.15 617.112 88.3715 617.038 88.5066 616.963C89.5441 616.397 90.1439 613.153 90.1439 612.23C90.1439 612.06 90.2844 611.921 90.4573 611.921C90.6302 611.921 90.7707 612.06 90.7707 612.23C90.7707 612.945 90.2358 616.728 88.8092 617.502C88.6579 617.582 88.4634 617.651 88.231 617.651C87.9987 617.651 87.7501 617.587 87.4691 617.411C86.7126 616.888 86.8207 615.474 87.1719 613.788C87.053 613.89 86.9234 613.975 86.7829 614.034C86.3776 614.215 85.9669 614.178 85.5941 613.916C83.7947 612.614 85.3996 608.389 86.2533 607.22C86.356 607.081 86.5505 607.049 86.691 607.151L86.6748 607.14Z" fill="#FFF3DB"/>
        <path d="M65.617 601.116L65.6765 600.999C65.7521 600.844 65.9412 600.785 66.0979 600.86C66.2492 600.935 66.3141 601.121 66.2384 601.271L66.179 601.388C65.4549 602.813 63.9527 605.785 64.8659 607.231C65.001 607.428 65.201 607.652 65.3901 607.626C65.7521 607.572 66.2709 606.729 66.5951 605.667C66.6437 605.502 66.822 605.411 66.9841 605.459C67.1516 605.507 67.2435 605.678 67.1949 605.843C67.0382 606.366 66.4438 608.095 65.4873 608.234C65.4441 608.239 65.3955 608.244 65.3523 608.244C64.9902 608.244 64.6498 608.02 64.3418 607.561C63.2395 605.817 64.8443 602.637 65.6224 601.111L65.617 601.116Z" fill="#EFDCBD"/>
        <path d="M68.9456 605.971C69.1131 606.014 69.2158 606.18 69.1725 606.345C68.5079 608.97 68.4376 611.046 69.0104 611.393C69.2914 611.563 69.8858 611.297 70.6477 610.656C70.7774 610.549 70.9773 610.56 71.0908 610.694C71.2043 610.822 71.1881 611.019 71.053 611.126C70.3073 611.75 69.7021 612.06 69.2104 612.06C69.0158 612.06 68.8429 612.011 68.6808 611.915C67.4596 611.168 68.1945 607.663 68.5673 606.19C68.6106 606.025 68.7781 605.923 68.9456 605.966V605.971Z" fill="#EFDCBD"/>
        <path d="M103.745 573.551C104.474 576.497 108.743 578.001 113.277 576.908C117.81 575.814 120.896 572.532 120.166 569.587C119.437 566.642 115.168 565.137 110.634 566.231C106.101 567.325 103.015 570.606 103.745 573.551Z" fill="#593A42"/>
        <path d="M115.816 566.855C117.27 567.207 118.599 568.365 118.912 569.838C119.085 570.649 117.799 570.804 117.626 570.003C117.437 569.133 116.481 568.328 115.627 568.125C114.822 567.933 114.995 566.663 115.811 566.855H115.816Z" fill="#936170"/>
        <path d="M119.064 570.985C119.237 571.433 119.22 571.903 119.004 572.335C118.637 573.071 117.443 572.564 117.816 571.823C117.886 571.684 117.918 571.609 117.864 571.465C117.567 570.692 118.772 570.211 119.064 570.985Z" fill="#936170"/>
        <path d="M103.637 564.886C103.637 565.895 104.193 566.706 104.879 566.706C105.566 566.706 106.122 565.889 106.122 564.886C106.122 563.883 105.566 563.061 104.879 563.061C104.193 563.061 103.637 563.878 103.637 564.886Z" fill="#593A42"/>
        <path d="M95.6825 564.886C95.6825 565.895 96.2391 566.706 96.9253 566.706C97.6116 566.706 98.1681 565.889 98.1681 564.886C98.1681 563.883 97.6116 563.061 96.9253 563.061C96.2391 563.061 95.6825 563.878 95.6825 564.886Z" fill="#593A42"/>
    </g>
    <defs>
        <clipPath id="clip0_1213_2">
            <rect x="52" y="427" width="384" height="195" rx="30" fill="white"/>
        </clipPath>
    </defs>
</svg>
